<svg xmlns="http://www.w3.org/2000/svg" width="46.966" height="32" viewBox="0 0 46.966 32"><defs><style>.a{fill:#fff;stroke:#c1c4cc;}.b{fill:#182e66;fill-rule:evenodd;}</style></defs><g transform="translate(-397.5 -624.735)"><rect class="a" width="45.966" height="31" rx="2" transform="translate(398 625.235)"/><path class="b" d="M31.307,9.988H28.571L30.281,0h2.736l-1.71,9.988" transform="translate(386.403 635.407)"/><path class="b" d="M9.05,0,6.564,6.869,6.27,5.39h0L5.393.9A1.115,1.115,0,0,0,4.156,0H.048L0,.169A9.753,9.753,0,0,1,2.727,1.311L4.992,9.988H7.708L11.855,0H9.05" transform="translate(403.86 635.407)"/><path class="b" d="M61.218,6.915l1.423-3.841.8,3.841Zm5.557,3.073L64.774,0h-2.75A1.154,1.154,0,0,0,60.87.744L57.143,9.988h2.6L60.269,8.5h3.177l.293,1.483Z" transform="translate(368.946 635.407)"/><path class="b" d="M47.056,2.493,47.41.421A7.071,7.071,0,0,0,45.18,0c-1.23,0-4.15.545-4.15,3.194,0,2.493,3.428,2.524,3.428,3.833s-3.075,1.075-4.089.249L40,9.443a6.864,6.864,0,0,0,2.8.545c1.691,0,4.243-.888,4.243-3.3,0-2.509-3.459-2.742-3.459-3.833S46,1.9,47.056,2.493" transform="translate(379.42 635.407)"/><path class="b" d="M5.928,5.378,5.1.9A1.075,1.075,0,0,0,3.929,0H.045L0,.168A9.348,9.348,0,0,1,3.658,2.1a7.8,7.8,0,0,1,2.27,3.276" transform="translate(403.86 635.407)"/></g></svg>